Coordinates
version=1
nRows=10
nColumns=33
inDegrees=yes

Units are S.I. units (second, meters, Newtons, ...)
Angles are in degrees.

endheader
time	ground_thorax_rot_x	ground_thorax_rot_y	ground_thorax_rot_z	ground_thorax_tx	ground_thorax_ty	ground_thorax_tz	clav_prot_r	clav_elev_r	scapula_abduction_r	scapula_elevation_r	scapula_upward_rot_r	scapula_winging_r	shoulder_elv_r	plane_of_elev_r	axial_rot_r	elbow_flexion_r	pro_sup_r	wrist_flex_r	wrist_dev_r	clav_prot_l	clav_elev_l	scapula_abduction_l	scapula_elevation_l	scapula_upward_rot_l	scapula_winging_l	shoulder_elv_l	plane_of_elev_l	axial_rot_l	elbow_flexion_l	pro_sup_l	wrist_flex_l	wrist_dev_l
      1.31000000	      3.02129380	     -7.93743894	      7.43280638	     -0.10702732	      1.03414012	      0.00657124	      5.06244648	     -8.84655523	      8.91664714	     -1.97291922	      0.16250351	     -0.99312699	     36.00578962	     14.67250156	     14.65416804	     51.92497616	     40.31263955	      5.47109965	     18.84873080	      4.89738492	    -13.97510839	     -4.57681420	      1.21866128	    -15.36550868	     -4.04511182	     48.20135194	      9.71793727	     -2.71384363	     60.96003783	     31.49146405	     15.27742597	     -5.24692965
      1.32000000	      3.02122669	     -7.83538669	      7.05306589	     -0.10679368	      1.03443985	      0.00656207	      5.14298594	     -8.96863479	      9.24528929	     -2.24047834	      0.52911288	     -1.08874133	     36.29756092	     15.23674892	     14.47822491	     51.81965078	     40.31541098	      5.44347728	     18.87000326	      4.95299853	    -14.08261616	     -4.74791199	      1.45517449	    -15.07581015	     -4.01530845	     48.28490523	     10.31027853	     -2.81465395	     61.13044920	     30.90321000	     15.18795369	     -5.11455578
      1.33000000	      3.17001329	     -7.74388067	      7.31405092	     -0.10667498	      1.03489497	      0.00652647	      5.14985261	     -9.08137590	      9.34799440	     -2.41445513	      0.69331292	     -1.09262903	     36.41762337	     15.46442894	     14.32941072	     51.75514564	     40.31644580	      5.42140666	     18.85796126	      4.99685416	    -14.17812522	     -4.81809612	      1.53677113	    -15.09634706	     -4.02851982	     48.14047478	     10.61492650	     -2.95263642	     61.45459370	     30.73321158	     15.16712068	     -5.13322931
      1.34000000	      3.00867550	     -7.76494471	      7.28951332	     -0.10683397	      1.03427323	      0.00630199	      6.04657515	     -8.67254257	     10.69717603	     -1.87718492	      0.34370401	     -1.68815219	     36.93566205	     16.41947351	     13.04014848	     51.84672681	     40.24329273	      5.32384688	     18.98320826	      5.12426354	    -13.42490208	     -5.16063583	      1.01920620	    -14.62520255	     -3.58572392	     47.55417869	     11.74422709	     -3.39300153	     61.24369191	     25.55087767	     14.23569074	     -3.61469981
      1.35000000	      3.12335195	     -7.69160735	      7.21466892	     -0.10658102	      1.03485025	      0.00629652	      6.04997075	     -8.83335333	     10.85156317	     -2.14387790	      0.62499646	     -1.70136573	     37.25791219	     16.83255809	     12.85390269	     51.95569797	     40.28458270	      5.33842246	     18.93023340	      5.12732965	    -13.66261763	     -5.19935015	      1.30284514	    -14.50852249	     -3.65755615	     47.61727692	     12.14089026	     -3.45012660	     61.67179143	     25.38342485	     13.95991771	     -3.59702692
      1.36000000	      3.22697726	     -7.58801505	      7.50275240	     -0.10657337	      1.03543536	      0.00621723	      6.04028129	     -8.95641323	     10.95306164	     -2.34939514	      0.84547747	     -1.70905585	     37.40825161	     17.11045482	     12.71236371	     51.96508544	     40.29147128	      5.32709540	     18.89955468	      5.16086639	    -13.79466330	     -5.26245289	      1.43679663	    -14.49202384	     -3.68502284	     47.52346480	     12.48779178	     -3.57433947	     62.06886852	     25.30941517	     13.90516092	     -3.64479884
      1.37000000	      3.10591245	     -7.62314312	      7.35371149	     -0.10665861	      1.03535104	      0.00603705	      6.82829124	     -8.82867131	     12.12291785	     -2.06369806	      0.46710685	     -2.15110498	     38.28307919	     18.01442720	     11.49086764	     52.35063471	     40.64851378	      5.15302080	     18.57091533	      5.19196174	    -13.42257788	     -5.38251209	      1.19279904	    -14.23825550	     -3.48430944	     47.43571071	     13.53258740	     -3.96428906	     62.23574401	     23.14213176	     11.63582394	     -2.74569040
      1.38000000	      3.21116278	     -7.56499828	      7.36540680	     -0.10641761	      1.03585466	      0.00603137	      6.78956877	     -8.92578192	     12.23537733	     -2.30234942	      0.82224274	     -2.17649471	     38.56551767	     18.46274805	     11.30693671	     52.58668517	     40.63024433	      5.18936618	     18.53665022	      5.17501014	    -13.57575699	     -5.39773978	      1.41243912	    -14.08414380	     -3.53110042	     47.44715742	     14.02828812	     -3.92541042	     62.78118251	     22.99361483	     11.53957492	     -2.81815661
      1.39000000	      3.29631920	     -7.50358645	      7.37056111	     -0.10618979	      1.03632839	      0.00600682	      6.76857773	     -9.01050297	     12.38544567	     -2.53409162	      1.19079904	     -2.22060314	     38.84907753	     18.94089786	     11.02746688	     52.83832131	     40.61542568	      5.19635023	     18.46770380	      5.16253096	    -13.67696498	     -5.42848730	      1.59652553	    -13.89804709	     -3.55405769	     47.45075664	     14.61274914	     -3.87594068	     63.30019257	     22.80951145	     11.39766637	     -2.86600788
      1.40000000	      3.36725160	     -7.45247087	      7.38128623	     -0.10599579	      1.03676896	      0.00595812	      6.76824390	     -9.07332323	     12.57448125	     -2.74688927	      1.56464653	     -2.28652636	     39.14387511	     19.43620142	     10.67719408	     53.14600251	     40.60765495	      5.18823507	     18.36271704	      5.15131807	    -13.72869660	     -5.46826903	      1.74231393	    -13.69064229	     -3.55255179	     47.44305261	     15.27288338	     -3.80811753	     63.81010782	     22.58477521	     11.20464606	     -2.89155404
